# xmcd CD database file
#
# Track frame offsets:
#	150
#	27312
#	54626
#	89243
#	108441
#	139908
#	175367
#	201268
#
# Disc length: 3651 seconds
#
# Revision: 0
# Processed by: cddbd v1.5.2PL0 Copyright (c) Steve Scherf et al.
# Submitted via: CDex 1.51
#
DISCID=780e4108
DTITLE=GIORGIO GASLINI - Chamber Trio
DYEAR=2007
DGENRE=Jazz
TTITLE0=GIORGIO GASLINI - Africa libera
TTITLE1=GIORGIO GASLINI - Addis
TTITLE2=GIORGIO GASLINI - Homo mechanicus
TTITLE3=GIORGIO GASLINI - Batterie
TTITLE4=GIORGIO GASLINI - Sicilienne
TTITLE5=GIORGIO GASLINI - Light my fire
TTITLE6=GIORGIO GASLINI - Latin genetics
TTITLE7=GIORGIO GASLINI - La fabbrica della musica
EXTD=YEAR: 2007
EXTT0=
EXTT1=
EXTT2=
EXTT3=
EXTT4=
EXTT5=
EXTT6=
EXTT7=
PLAYORDER=
